<svg xmlns="http://www.w3.org/2000/svg" viewBox="0 0 64 64" fill="none">
  <!-- Background -->
  <circle cx="32" cy="32" r="31" fill="#fff0f5"/>
  <!-- Brown hair - simple rounded top, like a bob cut -->
  <path d="M 32 2 A 30 30 0 0 1 62 32 A 30 30 0 0 1 32 62 A 30 30 0 0 1 2 32 A 30 30 0 0 1 32 2 Z" fill="#5d4e37"/>
  <!-- Face circle -->
  <circle cx="32" cy="36" r="20" fill="#ffe4d0"/>
  <!-- Hair covers top - smooth arc -->
  <path d="M 2 28 Q 2 2 32 2 Q 62 2 62 28 Q 58 22 32 20 Q 6 22 2 28 Z" fill="#5d4e37"/>
  <!-- Eyes - rounded, kind -->
  <circle cx="24" cy="34" r="5" fill="#3e2723"/>
  <circle cx="40" cy="34" r="5" fill="#3e2723"/>
  <!-- Shine -->
  <circle cx="25" cy="32" r="2" fill="white"/>
  <circle cx="41" cy="32" r="2" fill="white"/>
  <!-- Upturned smile -->
  <path d="M 22 48 Q 32 56 42 48" stroke="#8d6e63" stroke-width="2.5" fill="none" stroke-linecap="round"/>
  <!-- Cheeks -->
  <circle cx="16" cy="46" r="5" fill="#ffab91" opacity="0.4"/>
  <circle cx="48" cy="46" r="5" fill="#ffab91" opacity="0.4"/>
</svg>
